<?xml version="1.0" encoding="utf-8"?>
<!-- Generator: Adobe Illustrator 26.3.1, SVG Export Plug-In . SVG Version: 6.00 Build 0)  -->
<svg version="1.1" id="Layer_1" xmlns="http://www.w3.org/2000/svg" xmlns:xlink="http://www.w3.org/1999/xlink" x="0px" y="0px"
	 width="255px" height="100px" viewBox="0 0 255 100" style="enable-background:new 0 0 255 100;" xml:space="preserve">
<style type="text/css">
	.st0{fill:#083994;}
	.st1{fill:#731707;}
	.st2{fill:#FFFFFF;}
</style>
<g>
	<path class="st0" d="M126.49,21.87c-1.19-0.87-4.29-4.71-4.39-6.97c-0.1-2.26-1.23-5.03-3.03-4.97c-1.81,0.06-4.77,1.94-6.16,2.39
		c-1.39,0.45-1.74,0.19-3.48-0.16c-1.74-0.35-3.74-1.68-5.1-2.71c-1.35-1.03-2.32-3.13-2.61-4.32c-0.29-1.19,0.26-2.13,0-2.87
		c-0.26-0.74-0.55-0.45-0.74-1.06C100.78,0.58,100.13,0,99.42,0s-0.77,0.29-1.03,0.94c-0.26,0.65-1.87,2.26-2.58,2.87
		c-0.71,0.61-1.84,0.26-3.1,0.26c-1.26,0-1.9-0.13-2.81-0.45c-0.9-0.32-1.45,0.1-3.32,0.35s-2.29,0.13-3.77,0
		c-1.48-0.13-2.65-0.71-4.94-0.58c-2.29,0.13-5.71,0.03-7.65-0.71c-1.94-0.74-4.16-0.48-5.16,0c-1,0.48-1.35,1.1-2.52,1.23
		c-1.16,0.13-1.94,0.58-2.94,1.48c-1,0.9-2.87,0.9-6.26,1.48c-3.39,0.58-8.94,4.29-9.74,5.36c-0.81,1.06-1.58,1-2.55,1.32
		c-0.97,0.32-6.81,4.23-7.52,4.81s-4.1,2.1-5.26,2.26c-1.16,0.16-0.65,1.06-0.65,3.42c0,2.35-6,3.16-9.13,3.06
		c-3.13-0.1-3.71,0.9-3.74,2.35c-0.03,1.45,0.39,1.48,1.03,2.26c0.65,0.77,0.16,0.77-0.81,1.23c-0.97,0.45-4.03,1-8.94,3.94
		c-4.9,2.94-5.61,6.58-5.61,9.1c0,0-0.45,19.26-0.45,30.97C0,88.65,12.29,100,21.29,100c0,0,53.85,0,107.13,0V22.72
		C127.83,22.79,127.45,22.57,126.49,21.87z"/>
	<path class="st1" d="M128.43,22.72c0.14-0.02,0.3-0.05,0.48-0.1c0.94-0.26,1.65-0.26,2.16-1.45c0.52-1.19,0.74-1.81,1.65-1.97
		s1.9,0.1,3.06,0.65s3.87,1.55,4.26,2c0.39,0.45,0.45,1.29,0.48,2.06s0.65,1.58,1.26,1.58c0.61,0,3.45-0.03,4.45,0.26
		c1,0.29,2.42,1.45,2.97,1.9s0.81,1.48,1.45,1.48c0.65,0,1.35,0.13,1.65-0.84c0.29-0.97,0.71-1.9,1.32-2.1
		c0.61-0.19,1.32-0.42,1.71,0.03s0.42,1.45,0.68,1.9c0.26,0.45,0.1,0.9,1.87,1.42s2.55,0.71,4.39,0.94s3.39,0.65,4.52,0.94
		s1.71,0.19,3.68-0.1c1.97-0.29,2-0.87,2.45-0.9c0.45-0.03,1.74,0.58,2.13,0.23c0.39-0.35,0.58-0.87,1.03-1.19
		c0.45-0.32,0.84-0.45,1.71-0.48c0.87-0.03,0.68-0.48,1.58-0.65s2.29-0.16,2.77-0.26c0.48-0.1,1.42,0,3.36-0.06
		c1.94-0.06,1.9-0.81,2.61-1.23c0.71-0.42,1.1-0.45,1.94,0.13c0.84,0.58,1.61,1.55,2.42,1.81s1.39,0.16,3.06,0.48
		c1.68,0.32,1.32,0.97,2.06,1.26s0.58,0.13,1.94,0.06s1.77,0.58,2.13,0.9c0.35,0.32,0.55,0.74,2.19,0.19s2.13-0.97,2.77-1.77
		c0.65-0.81,1.13-1.06,2.74-0.9s1.97,0.71,3.03-0.61s1.68-1.65,2.29-2c0.61-0.35,0.81-0.81,1.32-1.23c0.52-0.42,0.16-0.48,1.87-0.52
		c1.71-0.03,2.65-0.32,3.42-1.19c0.77-0.87,2.65-1.65,3.13-2.19c0.48-0.55,1.1-0.87,1.84-1.26c0.74-0.39,1.71-0.81,2-1.16
		c0.29-0.35,0.35-1.13,1.29-1.9s1.48-1.58,2.13-1.58c0.65,0,0.74,0.94,1.1,1.13c0.35,0.19,0.58,0.19,1.68,0.39
		c1.1,0.19,1.52,0.71,1.77,0.94c0.26,0.23,1.16,0.42,1.52-0.03s0.06-1.06,0.9-1.68s1-0.42,1.61-0.13c0.61,0.29,0.87,0.77,1.74,0.77
		c0.87,0,2.16-0.16,3.84,0.03s1.23-0.1,3.03,0.74c1.81,0.84,1.13,0.13,2.71,1.26c1.58,1.13,2.1,1.48,2.42,2.1s0.54,0.77,0.54,1.58
		v56.97c0,0-5.54,20.64-23.73,20.64c-8.54,0-55.24,0-102.39,0"/>
	<polygon class="st2" points="4.4,48.49 4.4,52.87 20.34,64.42 30.55,64.42 10.67,50 28.49,37.3 19.24,37.3 	"/>
	<polygon class="st2" points="39.62,37.3 26.42,59.98 31.41,63.75 41.56,44.9 52.94,64.42 60.54,64.42 44.12,37.3 	"/>
	<path class="st2" d="M45.7,37.3l2.8,4.74h23.29c0,0,1.95,0.06,1.95,1.7s0,2.98,0,3.83c0,0.85,0.12,1.82-2.43,1.82s-18.43,0-18.43,0
		l2.8,4.8H62l11.31,10.22h9.37L69.96,54.14c0,0,3.34,0,5.78,0c2.43,0,4.2-2.07,4.2-4.5s0-5.53,0-8.33s-2.68-4.01-5.41-4.01
		C71.79,37.3,45.7,37.3,45.7,37.3z"/>
	<polygon class="st2" points="91.55,37.3 78.54,59.62 83.22,63.75 93.62,45.14 105.05,64.42 112.47,64.42 96.18,37.3 	"/>
	<path class="st2" d="M97.45,37.3l2.92,4.99c0,0,15.93,0,19.34,0c3.41,0,7.56,2.07,7.56,8.58s-4.83,8.45-9.39,8.45s-7.12,0-7.12,0
		l2.98,5.11c0,0,1.34,0,7.78,0c6.45,0,12.47-5.06,12.47-14.42s-8.27-12.7-14.23-12.7S97.45,37.3,97.45,37.3z"/>
	<path class="st2" d="M125.43,37.3c0,0,6.08,1.64,7.72,4.62c1.64,0,20.92,0,20.92,0V37.3H125.43z"/>
	<rect x="135.22" y="48.06" class="st2" width="15.87" height="4.5"/>
	<path class="st2" d="M125.43,64.73c0,0,5.47-1.22,7.85-5.17c2.43,0,21.1,0,21.1,0v4.87L125.43,64.73z"/>
	<polygon class="st2" points="156.2,37.3 156.2,64.42 162.16,64.42 162.16,46.3 185.15,64.42 189.83,64.42 189.83,44.72 
		183.69,44.72 183.69,54.99 160.82,37.3 	"/>
	<polygon class="st2" points="179.61,37.3 183.75,41.92 189.83,41.92 189.83,37.3 	"/>
	<polygon class="st2" points="191.78,37.3 191.78,41.92 210.08,41.92 191.29,61.26 191.29,64.42 220.48,64.42 220.48,59.25 
		201.33,59.25 220.54,40.03 220.54,37.3 	"/>
	<polygon class="st2" points="223.46,37.3 223.46,64.42 250.34,64.42 250.34,59.56 229.85,59.56 229.85,37.3 	"/>
	<polygon class="st2" points="240.07,37.3 244.32,42.1 250.34,42.1 250.34,37.3 	"/>
	<rect x="244.2" y="44.84" class="st2" width="6.14" height="12.41"/>
	<path class="st2" d="M107.19,69.32c-7.24,0-13.12,5.87-13.12,13.12s5.87,13.12,13.12,13.12s13.12-5.87,13.12-13.12
		S114.43,69.32,107.19,69.32z M107.19,91.33c-4.91,0-8.89-3.98-8.89-8.89c0-4.91,3.98-8.89,8.89-8.89c4.91,0,8.89,3.98,8.89,8.89
		C116.08,87.34,112.1,91.33,107.19,91.33z"/>
	<path class="st2" d="M107.19,73.84c-4.74,0-8.59,3.85-8.59,8.59c0,4.74,3.85,8.59,8.59,8.59s8.59-3.85,8.59-8.59
		C115.77,77.69,111.93,73.84,107.19,73.84z M115.31,81.26c-1.7,0.01-3.16-0.16-3.25-0.41c-0.06-0.19,1.3-1.27,2.44-2.13
		C114.9,79.5,115.18,80.36,115.31,81.26z M113.42,77.1c0.27,0.31,0.51,0.65,0.73,1c-1.94,1.66-3.8,3.1-4.26,2.43
		C109.54,79.99,111.8,78.25,113.42,77.1z M112.96,76.6c-1.17,0.82-2.61,1.8-2.76,1.71c-0.14-0.1,0.3-1.79,0.69-3.19
		C111.66,75.5,112.35,76,112.96,76.6z M110.22,74.81c-0.55,1.91-1.43,4.6-1.97,4.37c-0.41-0.18-0.57-0.9,0-2.35
		c0.26-0.66,0.69-1.55,1.08-2.31C109.64,74.59,109.93,74.69,110.22,74.81z M109.78,81.66c0,0.14-0.11,0.25-0.25,0.25
		s-0.25-0.11-0.25-0.25c0-0.14,0.11-0.25,0.25-0.25S109.78,81.52,109.78,81.66z M107.19,84.05c-0.89,0-1.62-0.73-1.62-1.62
		c0-0.89,0.73-1.62,1.62-1.62c0.89,0,1.62,0.73,1.62,1.62C108.81,83.33,108.08,84.05,107.19,84.05z M108.8,84.39
		c0,0.14-0.11,0.25-0.25,0.25s-0.25-0.11-0.25-0.25s0.11-0.25,0.25-0.25S108.8,84.26,108.8,84.39z M106.07,84.39
		c0,0.14-0.11,0.25-0.25,0.25s-0.25-0.11-0.25-0.25s0.11-0.25,0.25-0.25S106.07,84.26,106.07,84.39z M106.94,79.99
		c0-0.14,0.11-0.25,0.25-0.25s0.25,0.11,0.25,0.25c0,0.14-0.11,0.25-0.25,0.25S106.94,80.13,106.94,79.99z M107.19,74.23
		c0.47,0,0.92,0.04,1.37,0.12c-0.55,1.38-1.14,2.9-1.34,2.9c-0.01,0-0.02-0.01-0.03-0.01c-0.01,0.01-0.02,0.01-0.03,0.01
		c-0.19,0-0.79-1.51-1.34-2.9C106.26,74.27,106.72,74.23,107.19,74.23z M105.04,74.51c0.39,0.77,0.82,1.65,1.08,2.31
		c0.57,1.45,0.41,2.18,0,2.35c-0.54,0.23-1.42-2.46-1.97-4.37C104.44,74.69,104.73,74.59,105.04,74.51z M105.11,81.66
		c0,0.14-0.11,0.25-0.25,0.25s-0.25-0.11-0.25-0.25c0-0.14,0.11-0.25,0.25-0.25S105.11,81.52,105.11,81.66z M103.48,75.11
		c0.39,1.4,0.84,3.1,0.69,3.19c-0.14,0.1-1.59-0.88-2.76-1.71C102.02,76,102.71,75.5,103.48,75.11z M100.95,77.1
		c1.62,1.15,3.88,2.89,3.52,3.42c-0.45,0.68-2.31-0.76-4.26-2.43C100.44,77.75,100.68,77.41,100.95,77.1z M99.87,78.72
		c1.15,0.86,2.51,1.94,2.44,2.13c-0.08,0.25-1.55,0.42-3.25,0.41C99.19,80.36,99.47,79.5,99.87,78.72z M98.98,82.43
		c0-0.2,0.01-0.39,0.02-0.59c1.58-0.01,3.88-0.02,4.13,0.01c0.36,0.04,0.6,0.19,0.62,0.58c-0.02,0.39-0.26,0.54-0.62,0.58
		c-0.25,0.03-2.55,0.02-4.13,0.01C98.99,82.83,98.98,82.63,98.98,82.43z M99.06,83.6c1.7-0.01,3.16,0.16,3.25,0.41
		c0.06,0.19-1.3,1.27-2.44,2.13C99.47,85.36,99.19,84.5,99.06,83.6z M100.95,87.76c-0.27-0.31-0.51-0.65-0.73-1
		c1.94-1.66,3.8-3.1,4.26-2.43C104.83,84.88,102.57,86.61,100.95,87.76z M101.41,88.26c1.17-0.82,2.61-1.8,2.76-1.71
		c0.14,0.1-0.3,1.79-0.69,3.19C102.71,89.36,102.02,88.86,101.41,88.26z M104.15,90.05c0.55-1.91,1.43-4.6,1.97-4.37
		c0.41,0.18,0.57,0.9,0,2.35c-0.26,0.66-0.69,1.55-1.08,2.31C104.73,90.27,104.44,90.17,104.15,90.05z M107.19,90.64
		c-0.47,0-0.92-0.04-1.37-0.12c0.55-1.38,1.14-2.9,1.34-2.9c0.01,0,0.02,0.01,0.03,0.01c0.01-0.01,0.02-0.01,0.03-0.01
		c0.19,0,0.79,1.51,1.34,2.9C108.11,90.6,107.65,90.64,107.19,90.64z M109.33,90.35c-0.39-0.77-0.82-1.65-1.08-2.31
		c-0.57-1.45-0.41-2.18,0-2.35c0.54-0.23,1.42,2.46,1.97,4.37C109.93,90.17,109.64,90.27,109.33,90.35z M110.89,89.75
		c-0.39-1.4-0.84-3.1-0.69-3.19c0.14-0.1,1.59,0.88,2.76,1.71C112.35,88.86,111.66,89.36,110.89,89.75z M113.42,87.76
		c-1.62-1.15-3.88-2.89-3.52-3.42c0.45-0.68,2.31,0.76,4.26,2.43C113.93,87.12,113.69,87.45,113.42,87.76z M114.5,86.15
		c-1.15-0.86-2.51-1.94-2.44-2.13c0.08-0.25,1.55-0.42,3.25-0.41C115.18,84.5,114.9,85.36,114.5,86.15z M111.24,83.01
		c-0.36-0.04-0.6-0.19-0.62-0.58c0.02-0.39,0.26-0.54,0.62-0.58c0.25-0.03,2.55-0.02,4.13-0.01c0.01,0.19,0.02,0.39,0.02,0.59
		c0,0.2-0.01,0.39-0.02,0.59C113.79,83.03,111.49,83.04,111.24,83.01z"/>
	<path class="st2" d="M147.83,69.32c-7.24,0-13.12,5.87-13.12,13.12s5.87,13.12,13.12,13.12s13.12-5.87,13.12-13.12
		S155.08,69.32,147.83,69.32z M147.83,91.33c-4.91,0-8.89-3.98-8.89-8.89c0-4.91,3.98-8.89,8.89-8.89c4.91,0,8.89,3.98,8.89,8.89
		C156.73,87.34,152.74,91.33,147.83,91.33z"/>
	<path class="st2" d="M147.83,73.84c-4.74,0-8.59,3.85-8.59,8.59c0,4.74,3.85,8.59,8.59,8.59s8.59-3.85,8.59-8.59
		C156.42,77.69,152.58,73.84,147.83,73.84z M155.95,81.26c-1.7,0.01-3.16-0.16-3.25-0.41c-0.06-0.19,1.3-1.27,2.44-2.13
		C155.55,79.5,155.82,80.36,155.95,81.26z M154.07,77.1c0.27,0.31,0.51,0.65,0.73,1c-1.94,1.66-3.8,3.1-4.26,2.43
		C150.19,79.99,152.44,78.25,154.07,77.1z M153.6,76.6c-1.17,0.82-2.61,1.8-2.76,1.71c-0.14-0.1,0.3-1.79,0.69-3.19
		C152.3,75.5,153,76,153.6,76.6z M150.87,74.81c-0.55,1.91-1.43,4.6-1.97,4.37c-0.41-0.18-0.57-0.9,0-2.35
		c0.26-0.66,0.69-1.55,1.08-2.31C150.28,74.59,150.58,74.69,150.87,74.81z M150.42,81.66c0,0.14-0.11,0.25-0.25,0.25
		c-0.14,0-0.25-0.11-0.25-0.25c0-0.14,0.11-0.25,0.25-0.25C150.31,81.41,150.42,81.52,150.42,81.66z M147.83,84.05
		c-0.89,0-1.62-0.73-1.62-1.62c0-0.89,0.73-1.62,1.62-1.62c0.89,0,1.62,0.73,1.62,1.62C149.45,83.33,148.73,84.05,147.83,84.05z
		 M149.44,84.39c0,0.14-0.11,0.25-0.25,0.25c-0.14,0-0.25-0.11-0.25-0.25s0.11-0.25,0.25-0.25
		C149.33,84.15,149.44,84.26,149.44,84.39z M146.71,84.39c0,0.14-0.11,0.25-0.25,0.25c-0.14,0-0.25-0.11-0.25-0.25
		s0.11-0.25,0.25-0.25C146.6,84.15,146.71,84.26,146.71,84.39z M147.59,79.99c0-0.14,0.11-0.25,0.25-0.25
		c0.14,0,0.25,0.11,0.25,0.25c0,0.14-0.11,0.25-0.25,0.25C147.7,80.24,147.59,80.13,147.59,79.99z M147.83,74.23
		c0.47,0,0.92,0.04,1.37,0.12c-0.55,1.38-1.14,2.9-1.34,2.9c-0.01,0-0.02-0.01-0.03-0.01c-0.01,0.01-0.02,0.01-0.03,0.01
		c-0.19,0-0.79-1.51-1.34-2.9C146.91,74.27,147.37,74.23,147.83,74.23z M145.68,74.51c0.39,0.77,0.82,1.65,1.08,2.31
		c0.57,1.45,0.41,2.18,0,2.35c-0.54,0.23-1.42-2.46-1.97-4.37C145.08,74.69,145.38,74.59,145.68,74.51z M145.75,81.66
		c0,0.14-0.11,0.25-0.25,0.25c-0.14,0-0.25-0.11-0.25-0.25c0-0.14,0.11-0.25,0.25-0.25C145.64,81.41,145.75,81.52,145.75,81.66z
		 M144.13,75.11c0.39,1.4,0.84,3.1,0.69,3.19c-0.14,0.1-1.59-0.88-2.76-1.71C142.67,76,143.36,75.5,144.13,75.11z M141.6,77.1
		c1.62,1.15,3.88,2.89,3.52,3.42c-0.45,0.68-2.31-0.76-4.26-2.43C141.09,77.75,141.33,77.41,141.6,77.1z M140.52,78.72
		c1.15,0.86,2.51,1.94,2.44,2.13c-0.08,0.25-1.55,0.42-3.25,0.41C139.84,80.36,140.12,79.5,140.52,78.72z M139.63,82.43
		c0-0.2,0.01-0.39,0.02-0.59c1.58-0.01,3.88-0.02,4.13,0.01c0.36,0.04,0.6,0.19,0.62,0.58c-0.02,0.39-0.26,0.54-0.62,0.58
		c-0.25,0.03-2.55,0.02-4.13,0.01C139.64,82.83,139.63,82.63,139.63,82.43z M139.71,83.6c1.7-0.01,3.16,0.16,3.25,0.41
		c0.06,0.19-1.3,1.27-2.44,2.13C140.12,85.36,139.84,84.5,139.71,83.6z M141.6,87.76c-0.27-0.31-0.51-0.65-0.73-1
		c1.94-1.66,3.8-3.1,4.26-2.43C145.48,84.88,143.22,86.61,141.6,87.76z M142.06,88.26c1.17-0.82,2.61-1.8,2.76-1.71
		c0.14,0.1-0.3,1.79-0.69,3.19C143.36,89.36,142.67,88.86,142.06,88.26z M144.79,90.05c0.55-1.91,1.43-4.6,1.97-4.37
		c0.41,0.18,0.57,0.9,0,2.35c-0.26,0.66-0.69,1.55-1.08,2.31C145.38,90.27,145.08,90.17,144.79,90.05z M147.83,90.64
		c-0.47,0-0.92-0.04-1.37-0.12c0.55-1.38,1.14-2.9,1.34-2.9c0.01,0,0.02,0.01,0.03,0.01c0.01-0.01,0.02-0.01,0.03-0.01
		c0.19,0,0.79,1.51,1.34,2.9C148.75,90.6,148.3,90.64,147.83,90.64z M149.98,90.35c-0.39-0.77-0.82-1.65-1.08-2.31
		c-0.57-1.45-0.41-2.18,0-2.35c0.54-0.23,1.42,2.46,1.97,4.37C150.58,90.17,150.28,90.27,149.98,90.35z M151.54,89.75
		c-0.39-1.4-0.84-3.1-0.69-3.19c0.14-0.1,1.59,0.88,2.76,1.71C153,88.86,152.3,89.36,151.54,89.75z M154.07,87.76
		c-1.62-1.15-3.88-2.89-3.52-3.42c0.45-0.68,2.31,0.76,4.26,2.43C154.58,87.12,154.33,87.45,154.07,87.76z M155.15,86.15
		c-1.15-0.86-2.51-1.94-2.44-2.13c0.08-0.25,1.55-0.42,3.25-0.41C155.82,84.5,155.55,85.36,155.15,86.15z M151.88,83.01
		c-0.36-0.04-0.6-0.19-0.62-0.58c0.02-0.39,0.26-0.54,0.62-0.58c0.25-0.03,2.55-0.02,4.13-0.01c0.01,0.19,0.02,0.39,0.02,0.59
		c0,0.2-0.01,0.39-0.02,0.59C154.44,83.03,152.13,83.04,151.88,83.01z"/>
	<path class="st2" d="M130.62,95.55V73.54h6.52c0,0,2.24-3.86,8.02-4.83h-35.3c5.78,0.97,8.02,4.83,8.02,4.83h6.52v22.01H130.62z"/>
	<path class="st2" d="M127.27,68.71"/>
</g>
</svg>
