<?xml version="1.0" encoding="utf-8"?>
<!-- Generator: Adobe Illustrator 26.3.1, SVG Export Plug-In . SVG Version: 6.00 Build 0)  -->
<svg version="1.1" id="Layer_1" xmlns="http://www.w3.org/2000/svg" xmlns:xlink="http://www.w3.org/1999/xlink" x="0px" y="0px"
	 width="275px" height="120px" viewBox="0 0 275 120" style="enable-background:new 0 0 275 120;" xml:space="preserve">
<style type="text/css">
	.st0{fill:#FFFFFF;}
	.st1{fill:#083994;}
	.st2{fill:#731707;}
</style>
<path class="st0" d="M245,120H30c-16.6,0-30-13.4-30-30V0h275v90C275,106.6,261.6,120,245,120z"/>
<g>
	<path class="st1" d="M136.7,31.9c-1.2-0.9-4.3-4.7-4.4-7c-0.1-2.3-1.2-5-3-5c-1.8,0.1-4.8,1.9-6.2,2.4c-1.4,0.4-1.7,0.2-3.5-0.2
		c-1.7-0.4-3.7-1.7-5.1-2.7c-1.3-1-2.3-3.1-2.6-4.3s0.3-2.1,0-2.9s-0.6-0.4-0.7-1.1c-0.2-0.6-0.9-1.2-1.6-1.2s-0.8,0.3-1,0.9
		c-0.3,0.7-1.9,2.3-2.6,2.9c-0.7,0.6-1.8,0.3-3.1,0.3s-1.9-0.1-2.8-0.4c-0.9-0.3-1.4,0.1-3.3,0.3s-2.3,0.1-3.8,0
		c-1.5-0.1-2.7-0.7-4.9-0.6s-5.7,0-7.7-0.7c-1.9-0.7-4.2-0.5-5.2,0c-1,0.5-1.3,1.1-2.5,1.2c-1.2,0.1-1.9,0.6-2.9,1.5
		s-2.9,0.9-6.3,1.5c-3.4,0.6-8.9,4.3-9.7,5.4c-0.8,1.1-1.6,1-2.5,1.3c-1,0.3-6.8,4.2-7.5,4.8s-4.1,2.1-5.3,2.3s-0.7,1.1-0.7,3.4
		c0,2.3-6,3.2-9.1,3.1S25,38,25,39.4c0,1.5,0.4,1.5,1,2.3c0.7,0.8,0.2,0.8-0.8,1.2c-1,0.5-4,1-8.9,3.9c-4.9,2.9-5.6,6.6-5.6,9.1
		c0,0-0.4,19.3-0.4,31c0,16.7,12.3,23.1,21.3,23.1c0,0,53.8,0,107.1,0V32.7C138.1,32.8,137.7,32.6,136.7,31.9z"/>
	<path class="st2" d="M138.7,32.7c0.1,0,0.3-0.1,0.5-0.1c0.9-0.3,1.6-0.3,2.2-1.5c0.5-1.2,0.7-1.8,1.6-2s1.9,0.1,3.1,0.6
		s3.9,1.5,4.3,2s0.4,1.3,0.5,2.1c0,0.8,0.6,1.6,1.3,1.6s3.4,0,4.4,0.3s2.4,1.4,3,1.9s0.8,1.5,1.4,1.5c0.6,0,1.4,0.1,1.6-0.8
		c0.3-1,0.7-1.9,1.3-2.1c0.6-0.2,1.3-0.4,1.7,0s0.4,1.5,0.7,1.9c0.3,0.5,0.1,0.9,1.9,1.4s2.6,0.7,4.4,0.9c1.8,0.2,3.4,0.7,4.5,0.9
		s1.7,0.2,3.7-0.1c2-0.3,2-0.9,2.4-0.9s1.7,0.6,2.1,0.2s0.6-0.9,1-1.2s0.8-0.5,1.7-0.5c0.9,0,0.7-0.5,1.6-0.6s2.3-0.2,2.8-0.3
		c0.5-0.1,1.4,0,3.4-0.1s1.9-0.8,2.6-1.2s1.1-0.5,1.9,0.1c0.8,0.6,1.6,1.6,2.4,1.8s1.4,0.2,3.1,0.5c1.7,0.3,1.3,1,2.1,1.3
		s0.6,0.1,1.9,0.1s1.8,0.6,2.1,0.9c0.4,0.3,0.6,0.7,2.2,0.2s2.1-1,2.8-1.8c0.6-0.8,1.1-1.1,2.7-0.9c1.6,0.2,2,0.7,3-0.6
		s1.7-1.6,2.3-2c0.6-0.3,0.8-0.8,1.3-1.2c0.5-0.4,0.2-0.5,1.9-0.5c1.7,0,2.6-0.3,3.4-1.2s2.6-1.6,3.1-2.2c0.5-0.5,1.1-0.9,1.8-1.3
		c0.7-0.4,1.7-0.8,2-1.2s0.4-1.1,1.3-1.9s1.5-1.6,2.1-1.6c0.6,0,0.7,0.9,1.1,1.1c0.4,0.2,0.6,0.2,1.7,0.4c1.1,0.2,1.5,0.7,1.8,0.9
		c0.3,0.2,1.2,0.4,1.5,0s0.1-1.1,0.9-1.7s1-0.4,1.6-0.1c0.6,0.3,0.9,0.8,1.7,0.8c0.9,0,2.2-0.2,3.8,0s1.2-0.1,3,0.7
		c1.8,0.8,1.1,0.1,2.7,1.3c1.6,1.1,2.1,1.5,2.4,2.1c0.3,0.6,0.5,0.8,0.5,1.6c0,0,0,50.6,0,57s-5.5,20.6-23.7,20.6
		c-8.5,0-55.2,0-102.4,0"/>
	<polygon class="st0" points="14.6,58.5 14.6,62.9 30.6,74.4 40.8,74.4 20.9,60 38.7,47.3 29.5,47.3 	"/>
	<polygon class="st0" points="49.9,47.3 36.7,70 41.7,73.7 51.8,54.9 63.2,74.4 70.8,74.4 54.4,47.3 	"/>
	<path class="st0" d="M55.9,47.3l2.8,4.7H82c0,0,1.9,0.1,1.9,1.7s0,3,0,3.8s0.1,1.8-2.4,1.8s-18.4,0-18.4,0l2.8,4.8h6.3l11.3,10.2
		h9.4L80.2,64.1c0,0,3.3,0,5.8,0c2.4,0,4.2-2.1,4.2-4.5s0-5.5,0-8.3s-2.7-4-5.4-4C82,47.3,55.9,47.3,55.9,47.3z"/>
	<polygon class="st0" points="101.8,47.3 88.8,69.6 93.5,73.7 103.9,55.1 115.3,74.4 122.7,74.4 106.4,47.3 	"/>
	<path class="st0" d="M107.7,47.3l2.9,5c0,0,15.9,0,19.3,0c3.4,0,7.6,2.1,7.6,8.6s-4.8,8.4-9.4,8.4s-7.1,0-7.1,0l3,5.1
		c0,0,1.3,0,7.8,0c6.4,0,12.5-5.1,12.5-14.4S136,47.3,130,47.3S107.7,47.3,107.7,47.3z"/>
	<path class="st0" d="M135.7,47.3c0,0,6.1,1.6,7.7,4.6c1.6,0,20.9,0,20.9,0v-4.6H135.7z"/>
	<rect x="145.5" y="58.1" class="st0" width="15.9" height="4.5"/>
	<path class="st0" d="M135.7,74.7c0,0,5.5-1.2,7.8-5.2c2.4,0,21.1,0,21.1,0v4.9L135.7,74.7z"/>
	<polygon class="st0" points="166.4,47.3 166.4,74.4 172.4,74.4 172.4,56.3 195.4,74.4 200.1,74.4 200.1,54.7 193.9,54.7 193.9,65 
		171.1,47.3 	"/>
	<polygon class="st0" points="189.9,47.3 194,51.9 200.1,51.9 200.1,47.3 	"/>
	<polygon class="st0" points="202,47.3 202,51.9 220.3,51.9 201.5,71.3 201.5,74.4 230.7,74.4 230.7,69.2 211.6,69.2 230.8,50 
		230.8,47.3 	"/>
	<polygon class="st0" points="233.7,47.3 233.7,74.4 260.6,74.4 260.6,69.6 240.1,69.6 240.1,47.3 	"/>
	<polygon class="st0" points="250.3,47.3 254.6,52.1 260.6,52.1 260.6,47.3 	"/>
	<rect x="254.4" y="54.8" class="st0" width="6.1" height="12.4"/>
	<path class="st0" d="M117.4,79.3c-7.2,0-13.1,5.9-13.1,13.1s5.9,13.1,13.1,13.1s13.1-5.9,13.1-13.1S124.7,79.3,117.4,79.3z
		 M117.4,101.3c-4.9,0-8.9-4-8.9-8.9c0-4.9,4-8.9,8.9-8.9c4.9,0,8.9,4,8.9,8.9C126.3,97.3,122.3,101.3,117.4,101.3z"/>
	<path class="st0" d="M117.4,83.8c-4.7,0-8.6,3.8-8.6,8.6s3.8,8.6,8.6,8.6s8.6-3.8,8.6-8.6C126,87.7,122.2,83.8,117.4,83.8z
		 M125.6,91.3c-1.7,0-3.2-0.2-3.2-0.4c-0.1-0.2,1.3-1.3,2.4-2.1C125.1,89.5,125.4,90.4,125.6,91.3z M123.7,87.1
		c0.3,0.3,0.5,0.7,0.7,1c-1.9,1.7-3.8,3.1-4.3,2.4C119.8,90,122,88.2,123.7,87.1z M123.2,86.6c-1.2,0.8-2.6,1.8-2.8,1.7
		c-0.1-0.1,0.3-1.8,0.7-3.2C121.9,85.5,122.6,86,123.2,86.6z M120.5,84.8c-0.6,1.9-1.4,4.6-2,4.4c-0.4-0.2-0.6-0.9,0-2.3
		c0.3-0.7,0.7-1.6,1.1-2.3C119.9,84.6,120.2,84.7,120.5,84.8z M120,91.7c0,0.1-0.1,0.2-0.2,0.2s-0.2-0.1-0.2-0.2s0.1-0.2,0.2-0.2
		S120,91.5,120,91.7z M117.4,94c-0.9,0-1.6-0.7-1.6-1.6s0.7-1.6,1.6-1.6s1.6,0.7,1.6,1.6C119.1,93.3,118.3,94,117.4,94z M119,94.4
		c0,0.1-0.1,0.2-0.2,0.2s-0.2-0.1-0.2-0.2s0.1-0.2,0.2-0.2S119,94.3,119,94.4z M116.3,94.4c0,0.1-0.1,0.2-0.2,0.2s-0.2-0.1-0.2-0.2
		s0.1-0.2,0.2-0.2S116.3,94.3,116.3,94.4z M117.2,90c0-0.1,0.1-0.2,0.2-0.2s0.2,0.1,0.2,0.2s-0.1,0.2-0.2,0.2S117.2,90.1,117.2,90z
		 M117.4,84.2c0.5,0,0.9,0,1.4,0.1c-0.6,1.4-1.1,2.9-1.3,2.9c0,0,0,0,0,0c0,0,0,0,0,0c-0.2,0-0.8-1.5-1.3-2.9
		C116.5,84.3,117,84.2,117.4,84.2z M115.3,84.5c0.4,0.8,0.8,1.7,1.1,2.3c0.6,1.4,0.4,2.2,0,2.3c-0.5,0.2-1.4-2.5-2-4.4
		C114.7,84.7,115,84.6,115.3,84.5z M115.4,91.7c0,0.1-0.1,0.2-0.2,0.2s-0.2-0.1-0.2-0.2s0.1-0.2,0.2-0.2S115.4,91.5,115.4,91.7z
		 M113.7,85.1c0.4,1.4,0.8,3.1,0.7,3.2c-0.1,0.1-1.6-0.9-2.8-1.7C112.3,86,113,85.5,113.7,85.1z M111.2,87.1
		c1.6,1.2,3.9,2.9,3.5,3.4c-0.4,0.7-2.3-0.8-4.3-2.4C110.7,87.7,110.9,87.4,111.2,87.1z M110.1,88.7c1.2,0.9,2.5,1.9,2.4,2.1
		c-0.1,0.2-1.6,0.4-3.2,0.4C109.4,90.4,109.7,89.5,110.1,88.7z M109.2,92.4c0-0.2,0-0.4,0-0.6c1.6,0,3.9,0,4.1,0
		c0.4,0,0.6,0.2,0.6,0.6c0,0.4-0.3,0.5-0.6,0.6c-0.2,0-2.6,0-4.1,0C109.2,92.8,109.2,92.6,109.2,92.4z M109.3,93.6
		c1.7,0,3.2,0.2,3.2,0.4c0.1,0.2-1.3,1.3-2.4,2.1C109.7,95.4,109.4,94.5,109.3,93.6z M111.2,97.8c-0.3-0.3-0.5-0.7-0.7-1
		c1.9-1.7,3.8-3.1,4.3-2.4C115.1,94.9,112.8,96.6,111.2,97.8z M111.7,98.3c1.2-0.8,2.6-1.8,2.8-1.7c0.1,0.1-0.3,1.8-0.7,3.2
		C113,99.4,112.3,98.9,111.7,98.3z M114.4,100c0.6-1.9,1.4-4.6,2-4.4c0.4,0.2,0.6,0.9,0,2.3c-0.3,0.7-0.7,1.6-1.1,2.3
		C115,100.3,114.7,100.2,114.4,100z M117.4,100.6c-0.5,0-0.9,0-1.4-0.1c0.6-1.4,1.1-2.9,1.3-2.9c0,0,0,0,0,0c0,0,0,0,0,0
		c0.2,0,0.8,1.5,1.3,2.9C118.4,100.6,117.9,100.6,117.4,100.6z M119.6,100.3c-0.4-0.8-0.8-1.7-1.1-2.3c-0.6-1.4-0.4-2.2,0-2.3
		c0.5-0.2,1.4,2.5,2,4.4C120.2,100.2,119.9,100.3,119.6,100.3z M121.1,99.7c-0.4-1.4-0.8-3.1-0.7-3.2c0.1-0.1,1.6,0.9,2.8,1.7
		C122.6,98.9,121.9,99.4,121.1,99.7z M123.7,97.8c-1.6-1.2-3.9-2.9-3.5-3.4c0.4-0.7,2.3,0.8,4.3,2.4
		C124.2,97.1,123.9,97.4,123.7,97.8z M124.7,96.1c-1.2-0.9-2.5-1.9-2.4-2.1c0.1-0.2,1.6-0.4,3.2-0.4
		C125.4,94.5,125.1,95.4,124.7,96.1z M121.5,93c-0.4,0-0.6-0.2-0.6-0.6c0-0.4,0.3-0.5,0.6-0.6c0.2,0,2.6,0,4.1,0c0,0.2,0,0.4,0,0.6
		s0,0.4,0,0.6C124,93,121.7,93,121.5,93z"/>
	<path class="st0" d="M158.1,79.3c-7.2,0-13.1,5.9-13.1,13.1s5.9,13.1,13.1,13.1s13.1-5.9,13.1-13.1S165.3,79.3,158.1,79.3z
		 M158.1,101.3c-4.9,0-8.9-4-8.9-8.9c0-4.9,4-8.9,8.9-8.9s8.9,4,8.9,8.9C167,97.3,163,101.3,158.1,101.3z"/>
	<path class="st0" d="M158.1,83.8c-4.7,0-8.6,3.8-8.6,8.6s3.9,8.6,8.6,8.6s8.6-3.8,8.6-8.6C166.7,87.7,162.8,83.8,158.1,83.8z
		 M166.2,91.3c-1.7,0-3.2-0.2-3.2-0.4c-0.1-0.2,1.3-1.3,2.4-2.1C165.8,89.5,166.1,90.4,166.2,91.3z M164.3,87.1
		c0.3,0.3,0.5,0.7,0.7,1c-1.9,1.7-3.8,3.1-4.3,2.4C160.4,90,162.7,88.2,164.3,87.1z M163.8,86.6c-1.2,0.8-2.6,1.8-2.8,1.7
		c-0.1-0.1,0.3-1.8,0.7-3.2C162.5,85.5,163.2,86,163.8,86.6z M161.1,84.8c-0.6,1.9-1.4,4.6-2,4.4c-0.4-0.2-0.6-0.9,0-2.3
		c0.3-0.7,0.7-1.6,1.1-2.3C160.5,84.6,160.8,84.7,161.1,84.8z M160.7,91.7c0,0.1-0.1,0.2-0.2,0.2s-0.2-0.1-0.2-0.2s0.1-0.2,0.2-0.2
		S160.7,91.5,160.7,91.7z M158.1,94c-0.9,0-1.6-0.7-1.6-1.6s0.7-1.6,1.6-1.6s1.6,0.7,1.6,1.6C159.7,93.3,159,94,158.1,94z
		 M159.7,94.4c0,0.1-0.1,0.2-0.2,0.2s-0.2-0.1-0.2-0.2s0.1-0.2,0.2-0.2C159.6,94.1,159.7,94.3,159.7,94.4z M157,94.4
		c0,0.1-0.1,0.2-0.2,0.2s-0.2-0.1-0.2-0.2s0.1-0.2,0.2-0.2C156.8,94.1,157,94.3,157,94.4z M157.8,90c0-0.1,0.1-0.2,0.2-0.2
		s0.2,0.1,0.2,0.2s-0.1,0.2-0.2,0.2S157.8,90.1,157.8,90z M158.1,84.2c0.5,0,0.9,0,1.4,0.1c-0.6,1.4-1.1,2.9-1.3,2.9c0,0,0,0,0,0
		c0,0,0,0,0,0c-0.2,0-0.8-1.5-1.3-2.9C157.2,84.3,157.6,84.2,158.1,84.2z M155.9,84.5c0.4,0.8,0.8,1.7,1.1,2.3
		c0.6,1.4,0.4,2.2,0,2.3c-0.5,0.2-1.4-2.5-2-4.4C155.3,84.7,155.6,84.6,155.9,84.5z M156,91.7c0,0.1-0.1,0.2-0.2,0.2
		s-0.2-0.1-0.2-0.2s0.1-0.2,0.2-0.2S156,91.5,156,91.7z M154.4,85.1c0.4,1.4,0.8,3.1,0.7,3.2c-0.1,0.1-1.6-0.9-2.8-1.7
		C152.9,86,153.6,85.5,154.4,85.1z M151.8,87.1c1.6,1.2,3.9,2.9,3.5,3.4c-0.4,0.7-2.3-0.8-4.3-2.4C151.3,87.7,151.6,87.4,151.8,87.1
		z M150.8,88.7c1.1,0.9,2.5,1.9,2.4,2.1c-0.1,0.2-1.6,0.4-3.2,0.4C150.1,90.4,150.4,89.5,150.8,88.7z M149.9,92.4c0-0.2,0-0.4,0-0.6
		c1.6,0,3.9,0,4.1,0c0.4,0,0.6,0.2,0.6,0.6c0,0.4-0.3,0.5-0.6,0.6c-0.2,0-2.6,0-4.1,0C149.9,92.8,149.9,92.6,149.9,92.4z M150,93.6
		c1.7,0,3.2,0.2,3.2,0.4c0.1,0.2-1.3,1.3-2.4,2.1C150.4,95.4,150.1,94.5,150,93.6z M151.8,97.8c-0.3-0.3-0.5-0.7-0.7-1
		c1.9-1.7,3.8-3.1,4.3-2.4C155.7,94.9,153.5,96.6,151.8,97.8z M152.3,98.3c1.2-0.8,2.6-1.8,2.8-1.7c0.1,0.1-0.3,1.8-0.7,3.2
		C153.6,99.4,152.9,98.9,152.3,98.3z M155,100c0.6-1.9,1.4-4.6,2-4.4c0.4,0.2,0.6,0.9,0,2.3c-0.3,0.7-0.7,1.6-1.1,2.3
		C155.6,100.3,155.3,100.2,155,100z M158.1,100.6c-0.5,0-0.9,0-1.4-0.1c0.6-1.4,1.1-2.9,1.3-2.9c0,0,0,0,0,0c0,0,0,0,0,0
		c0.2,0,0.8,1.5,1.3,2.9C159,100.6,158.5,100.6,158.1,100.6z M160.2,100.3c-0.4-0.8-0.8-1.7-1.1-2.3c-0.6-1.4-0.4-2.2,0-2.3
		c0.5-0.2,1.4,2.5,2,4.4C160.8,100.2,160.5,100.3,160.2,100.3z M161.8,99.7c-0.4-1.4-0.8-3.1-0.7-3.2c0.1-0.1,1.6,0.9,2.8,1.7
		C163.2,98.9,162.5,99.4,161.8,99.7z M164.3,97.8c-1.6-1.2-3.9-2.9-3.5-3.4c0.4-0.7,2.3,0.8,4.3,2.4
		C164.8,97.1,164.6,97.4,164.3,97.8z M165.4,96.1c-1.1-0.9-2.5-1.9-2.4-2.1c0.1-0.2,1.6-0.4,3.2-0.4
		C166.1,94.5,165.8,95.4,165.4,96.1z M162.1,93c-0.4,0-0.6-0.2-0.6-0.6c0-0.4,0.3-0.5,0.6-0.6c0.2,0,2.6,0,4.1,0c0,0.2,0,0.4,0,0.6
		s0,0.4,0,0.6C164.7,93,162.4,93,162.1,93z"/>
	<path class="st0" d="M140.9,105.5v-22h6.5c0,0,2.2-3.9,8-4.8h-35.3c5.8,1,8,4.8,8,4.8h6.5v22H140.9z"/>
	<path class="st0" d="M137.5,78.7"/>
</g>
</svg>
